<?xml version="1.0" standalone="no"?>
<!DOCTYPE svg PUBLIC "-//W3C//DTD SVG 20010904//EN"
 "http://www.w3.org/TR/2001/REC-SVG-20010904/DTD/svg10.dtd">
<svg version="1.0" xmlns="http://www.w3.org/2000/svg"
 width="700.000000pt" height="700.000000pt" viewBox="0 0 700.000000 700.000000"
 preserveAspectRatio="xMidYMid meet">
<metadata>
Created by potrace 1.14, written by Peter Selinger 2001-2017
</metadata>
<g transform="translate(0.000000,700.000000) scale(0.100000,-0.100000)"
fill="#000000" stroke="none">
<path d="M3627 5523 c-103 -102 -187 -190 -187 -194 0 -4 218 -225 485 -490
l485 -484 -1742 -5 -1742 -5 -1 -255 c0 -140 1 -262 3 -271 3 -13 205 -15
2015 -14 l2012 1 163 -160 162 -160 -160 -161 -160 -160 -2014 1 c-1818 0
-2015 -1 -2018 -15 -3 -13 -2 -478 1 -518 1 -10 357 -13 1743 -13 l1743 0
-492 -493 -492 -492 189 -185 c104 -102 192 -185 195 -185 3 0 505 499 1115
1110 l1110 1109 -38 39 c-37 38 -2180 2180 -2186 2184 -1 2 -86 -81 -189 -184z"/>
</g>
</svg>
